<?xml version="1.0" encoding="UTF-8"?>
<svg version="1.1" xmlns="http://www.w3.org/2000/svg" width="64" height="64">
<path d="M0 0 C0.66 0 1.32 0 2 0 C1.88490339 1.41750563 1.75746342 2.83401169 1.625 4.25 C1.55539063 5.03890625 1.48578125 5.8278125 1.4140625 6.640625 C0.97616091 9.13583782 0.35094017 10.8610114 -1 13 C-3.625 14.25 -3.625 14.25 -6 15 C-5.34 15.33 -4.68 15.66 -4 16 C-4.5409931 19.78695173 -6.03432464 21.62745972 -9 24 C-10.32 24 -11.64 24 -13 24 C-12.34 24.66 -11.68 25.32 -11 26 C-12.6875 28.0625 -12.6875 28.0625 -15 30 C-18.67283867 30.09417535 -19.9998715 29.00010336 -22.875 26.6875 C-25 24 -25 24 -24.875 21.75 C-24 20 -24 20 -23 19 C-21.81669817 17.13355094 -21.81669817 17.13355094 -21 15 C-21.33 14.01 -21.66 13.02 -22 12 C-21 10 -21 10 -18.55859375 9.10546875 C-17.52863281 8.80253906 -16.49867187 8.49960937 -15.4375 8.1875 C-9.84109135 6.41107434 -4.23712277 4.23712277 0 0 Z " fill="#D5C8A4" transform="translate(62,13)"/>
<path d="M0 0 C2.79290004 1.35887738 5.45367728 2.85540666 8.125 4.4375 C12.30217862 6.81058154 16.35661818 8.08288524 21.03125 9.12890625 C23 10 23 10 23.84375 11.96484375 C24 14 24 14 23 16 C23.66 16 24.32 16 25 16 C25.66666667 18.66666667 26.33333333 21.33333333 27 24 C25.93106782 25.03590338 24.84421512 26.05333942 23.75 27.0625 C23.14671875 27.63097656 22.5434375 28.19945313 21.921875 28.78515625 C20 30 20 30 17.84375 29.80859375 C16 29 16 29 14.75 27 C14 25 14 25 14 24 C13.21625 23.9175 12.4325 23.835 11.625 23.75 C9 23 9 23 7.6875 21.125 C7 19 7 19 7 16 C7.99 15.67 8.98 15.34 10 15 C9.44570312 14.85304688 8.89140625 14.70609375 8.3203125 14.5546875 C2.38192668 12.71611253 2.38192668 12.71611253 0.5 9.1875 C0.00889967 6.05673537 -0.15062255 3.16307357 0 0 Z " fill="#D5CDB5" transform="translate(0,13)"/>
<path d="M0 0 C0.66 0 1.32 0 2 0 C1.88490339 1.41750563 1.75746342 2.83401169 1.625 4.25 C1.55539063 5.03890625 1.48578125 5.8278125 1.4140625 6.640625 C0.97458992 9.14478952 0.38572115 10.86957156 -1 13 C-3.76565382 13.92188461 -5.38283702 14.11785222 -8.23046875 14.09765625 C-9.03291016 14.09443359 -9.83535156 14.09121094 -10.66210938 14.08789062 C-11.49548828 14.07951172 -12.32886719 14.07113281 -13.1875 14.0625 C-14.4549707 14.05573242 -14.4549707 14.05573242 -15.74804688 14.04882812 C-17.83206155 14.03705403 -19.91603977 14.0191189 -22 14 C-21.65258789 12.06811523 -21.65258789 12.06811523 -21 10 C-18.55859375 8.91015625 -18.55859375 8.91015625 -15.4375 8.0625 C-9.79368653 6.36531504 -4.25495293 4.25495293 0 0 Z " fill="#CDBF93" transform="translate(62,13)"/>
<path d="M0 0 C0.66 0 1.32 0 2 0 C4.6647437 7.16942947 6.18931036 14.33944208 5 22 C3.4765625 23.84765625 3.4765625 23.84765625 2 25 C-1.875 23.125 -1.875 23.125 -3 22 C-3.61767731 14.01770865 -3.01358605 7.40839903 0 0 Z " fill="#E4DABE" transform="translate(31,11)"/>
<path d="M0 0 C-0.33 1.98 -0.66 3.96 -1 6 C2.12474627 4.36526484 2.12474627 4.36526484 2.6875 1.875 C2.8421875 0.946875 2.8421875 0.946875 3 0 C6.7952131 1.49097658 8.61042731 3.75700849 11 7 C9.88625 7.309375 9.88625 7.309375 8.75 7.625 C5.20768823 9.39615589 3.97553159 11.63427951 2 15 C-1.54433654 13.58226538 -2.33806119 12.32387762 -4 9 C-6.0335948 7.73195434 -6.0335948 7.73195434 -8 7 C-6.13932792 2.84926997 -4.83061881 0 0 0 Z " fill="#F6F4EF" transform="translate(31,38)"/>
<path d="M0 0 C2.83390802 1.37865796 5.53663219 2.8993082 8.25 4.5 C12.45475768 6.86386875 16.28268153 8.05653631 21 9 C21 9.33 21 9.66 21 10 C14.45688671 10.87557031 9.23352019 11.3548854 3 9 C3.99 10.32 4.98 11.64 6 13 C4.125 12.875 4.125 12.875 2 12 C0.11301833 7.94298942 -0.21117043 4.43457902 0 0 Z " fill="#EBDAAD" transform="translate(0,13)"/>
<path d="M0 0 C0.86882813 0.0721875 1.73765625 0.144375 2.6328125 0.21875 C3.78523437 0.3115625 4.93765625 0.404375 6.125 0.5 C7.26195312 0.5928125 8.39890625 0.685625 9.5703125 0.78125 C12.72597149 0.9825221 15.83921165 1.03842904 19 1 C19 2.32 19 3.64 19 5 C12.98021304 5.19110435 6.66342523 5.36397437 1 3 C0.67 2.01 0.34 1.02 0 0 Z " fill="#9E8E60" transform="translate(3,22)"/>
<path d="M0 0 C-0.66 1.98 -1.32 3.96 -2 6 C-11.59453303 5.40546697 -11.59453303 5.40546697 -15 2 C-9.92523206 0.73694665 -5.27203646 -0.27036084 0 0 Z " fill="#CDBA84" transform="translate(57,30)"/>
<path d="M0 0 C0.33 0 0.66 0 1 0 C1 6.6 1 13.2 1 20 C0.01 20 -0.98 20 -2 20 C-2.3690205 6.3667426 -2.3690205 6.3667426 0 0 Z " fill="#9C8D65" transform="translate(31,14)"/>
<path d="M0 0 C3 3 3 3 3.29296875 5.91796875 C3.25816406 6.99691406 3.22335938 8.07585938 3.1875 9.1875 C3.16042969 10.27417969 3.13335937 11.36085938 3.10546875 12.48046875 C3.07066406 13.31191406 3.03585938 14.14335938 3 15 C2.01 15.33 1.02 15.66 0 16 C0 10.72 0 5.44 0 0 Z " fill="#CEC094" transform="translate(33,18)"/>
<path d="M0 0 C3.7952131 1.49097658 5.61042731 3.75700849 8 7 C6.35 7.66 4.7 8.32 3 9 C2.71125 8.360625 2.4225 7.72125 2.125 7.0625 C1.17176549 4.84793921 1.17176549 4.84793921 -1 4 C-0.67 2.68 -0.34 1.36 0 0 Z " fill="#D8CBA7" transform="translate(34,38)"/>
<path d="M0 0 C2.08304538 -0.05418326 4.16649768 -0.09287551 6.25 -0.125 C7.99023438 -0.15980469 7.99023438 -0.15980469 9.765625 -0.1953125 C12.82786046 -0.0103949 14.44202751 0.39176977 17 2 C16.67 3.32 16.34 4.64 16 6 C15.67 5.34 15.34 4.68 15 4 C11.66693571 3.64175227 8.3536255 3.55539231 5.00390625 3.44140625 C4.01261719 3.29574219 3.02132812 3.15007813 2 3 C1.34 2.01 0.68 1.02 0 0 Z " fill="#FAF9F4" transform="translate(41,27)"/>
<path d="M0 0 C3.3 0 6.6 0 10 0 C10 0.99 10 1.98 10 3 C9.05125 3.309375 8.1025 3.61875 7.125 3.9375 C4.13919592 4.87394742 4.13919592 4.87394742 2 6 C1.34 4.02 0.68 2.04 0 0 Z " fill="#E4CE94" transform="translate(7,30)"/>
<path d="M0 0 C1.85772162 0.08984301 3.71247985 0.24611861 5.5625 0.4375 C7.08037109 0.59025391 7.08037109 0.59025391 8.62890625 0.74609375 C9.80259766 0.87177734 9.80259766 0.87177734 11 1 C8.66785852 2.20628008 6.50357861 3.1654738 4 4 C4.66 4.66 5.32 5.32 6 6 C4.125 6.625 4.125 6.625 2 7 C-0.13324818 4.86675182 -0.53238345 3.8992226 -1 1 C-0.67 0.67 -0.34 0.34 0 0 Z " fill="#EADBB3" transform="translate(40,29)"/>
<path d="M0 0 C0.99 0.495 0.99 0.495 2 1 C2 1.66 2 2.32 2 3 C3.32 2.34 4.64 1.68 6 1 C6 2.65 6 4.3 6 6 C4.02 6.99 4.02 6.99 2 8 C0 6 0 6 -0.125 2.875 C-0.08375 1.92625 -0.0425 0.9775 0 0 Z " fill="#C8BB98" transform="translate(29,45)"/>
<path d="M0 0 C0.99 0 1.98 0 3 0 C1.125 5.75 1.125 5.75 0 8 C-1.32 7.34 -2.64 6.68 -4 6 C-2.84826645 3.53199953 -1.95216435 1.95216435 0 0 Z " fill="#CEBF95" transform="translate(27,39)"/>
<path d="M0 0 C-1 3 -1 3 -3 4 C-4.54023996 4.06950541 -6.08334988 4.08452357 -7.625 4.0625 C-8.85089844 4.04896484 -8.85089844 4.04896484 -10.1015625 4.03515625 C-11.04128906 4.01775391 -11.04128906 4.01775391 -12 4 C-8.74358283 0.74358283 -4.52301031 0 0 0 Z " fill="#8B7D55" transform="translate(61,22)"/>
<path d="M0 0 C3.96 0.33 7.92 0.66 12 1 C11.67 1.99 11.34 2.98 11 4 C9.53984709 3.71758359 8.08190207 3.42373386 6.625 3.125 C5.81289063 2.96257813 5.00078125 2.80015625 4.1640625 2.6328125 C2 2 2 2 0 0 Z " fill="#A19267" transform="translate(42,32)"/>
<path d="M0 0 C0.66 0.33 1.32 0.66 2 1 C1.34 2.65 0.68 4.3 0 6 C0.66 6.33 1.32 6.66 2 7 C0.125 6.75 0.125 6.75 -2 6 C-3.25 3.9375 -3.25 3.9375 -4 2 C-2.125 0.9375 -2.125 0.9375 0 0 Z " fill="#EEDFB7" transform="translate(18,36)"/>
<path d="M0 0 C0 0.99 0 1.98 0 3 C-1.98 3 -3.96 3 -6 3 C-6 3.66 -6 4.32 -6 5 C-6.66 5 -7.32 5 -8 5 C-7.6875 3.0625 -7.6875 3.0625 -7 1 C-4 0 -4 0 0 0 Z " fill="#F2E1B5" transform="translate(48,22)"/>
<path d="M0 0 C0.99 0.33 1.98 0.66 3 1 C2.45773019 4.79588866 0.79872437 6.47211993 -2 9 C-2.66 8.67 -3.32 8.34 -4 8 C-3.34 7.236875 -2.68 6.47375 -2 5.6875 C0.29850538 3.15722061 0.29850538 3.15722061 0 0 Z " fill="#C7BFA7" transform="translate(24,33)"/>
<path d="M0 0 C1.32 0.66 2.64 1.32 4 2 C2.68 3.32 1.36 4.64 0 6 C-0.99 5.67 -1.98 5.34 -3 5 C-2.34 5 -1.68 5 -1 5 C-0.67 3.35 -0.34 1.7 0 0 Z " fill="#D9CFB1" transform="translate(47,37)"/>
<path d="M0 0 C2.31 0 4.62 0 7 0 C7 0.99 7 1.98 7 3 C4.69 3 2.38 3 0 3 C0 2.01 0 1.02 0 0 Z " fill="#BBA972" transform="translate(17,30)"/>
<path d="M0 0 C0.66 0 1.32 0 2 0 C2.66 2.97 3.32 5.94 4 9 C3.67 8.34 3.34 7.68 3 7 C2.34 7 1.68 7 1 7 C0.67 4.69 0.34 2.38 0 0 Z " fill="#DDD2B2" transform="translate(31,11)"/>
</svg>
